<?xml version="1.0" encoding="utf-8"?>
<!-- Generator: Adobe Illustrator 19.0.0, SVG Export Plug-In . SVG Version: 6.00 Build 0)  -->
<svg version="1.1" id="Слой_1" xmlns="http://www.w3.org/2000/svg" xmlns:xlink="http://www.w3.org/1999/xlink" x="0px" y="0px"
	 viewBox="0 0 268.1 137.1" style="enable-background:new 0 0 268.1 137.1;" xml:space="preserve">
<style type="text/css">
	.st0{fill-rule:evenodd;clip-rule:evenodd;fill:#262262;}
	.st1{fill:#262262;}
</style>
<g>
	<path class="st0" d="M15.7,117l0.3-2.3l-0.4-1l-0.5-0.5l-0.6-1.2l-1.7-1.7l1.6,0.5l1.7,1.9l-0.1,0.4l0.5,0.4l0.2,0.8l1,0.9l0.3-0.1
		v0.5l0.5,0.7l0.4,0v0.4l0.9,1.3l1.1,0.9l0.5,1.3l-1-0.5l-0.8-1.1l-0.7-0.4l-0.3-1l-0.8-0.5l-0.4-0.9l-0.8-0.5l0.1,1.1L15.7,117
		L15.7,117L15.7,117z M99.4,71.4l0.8,0.3l0.2-0.2l0.3,0.3l0.6,0.1l0.2-0.2l0.1-1l-0.4-0.1l-0.1-0.1l0.2-0.2l-0.1-0.2l-0.3,0.1
		l-0.7-0.6h-0.7L99,69.8l-0.1,0.5l0.1,0.3l0.3,0.1l0.2,0.3L99.4,71.4L99.4,71.4L99.4,71.4z M91.5,62.3l0.7,0.2l0.4,0l-0.1-0.3
		l0.3-0.2l-0.2-0.2l-0.8,0L91.5,62.3L91.5,62.3z M61.8,88l1.1-0.9l3.6-1l3.5-0.5l2-2.3l2.2-2l1.7-0.3l0.3-1.2l-0.3-1.3l0.6-1.8
		l0.5-0.6l-0.1-0.7l-1.1,0.6L75,77.6l-1.1,1.1l-1.4,0.9L72,80l-0.4-0.4l-0.3,0.8l-1.1,0.8L70,80.8l-0.4,0.7l-1.5,0.9l-1,0.1L66.2,83
		l0.1,0.3l-0.7,0.3l0-0.4l-0.4,0.2l-0.9,0.3l0.2,0.2l-0.8,0.7l-1.3-0.1L61.8,85l-0.3,0.5l-0.7,0.4l0.8-0.1l-0.6,0.8l0.1,0.5l1-0.8
		l-0.8,1L61.8,88L61.8,88L61.8,88z M82.2,95.3l1.2-0.6l0.4,0.1l0-0.7l0.3-0.4v-0.4l0.4-1.1l-0.6-0.6l-0.7,0.3l-0.7,0.6l0.6,0.8
		l-0.7,0.5l-0.4,0.8L82.2,95.3L82.2,95.3L82.2,95.3z M112.9,26.9l-1.1,0.7l-0.5,1.2l0.6,0.9l-0.3,1.1l-0.7,0.3l-0.1,1.1l0.3,0.4
		l-0.8,0.8l-0.3,0.6l0.4,1.2l-0.3,0.6l0,1.2l-0.4,0.5l-0.8,0.2l-0.4,0.8l-0.6,0.5l-0.2,3.3l0.1,0.3l-0.2,1l0.2,0.4l-0.6,1.5v1
		l0.6,0.4l0,1l-0.8,0.5l0.4,1.6l0.7,0.7l0.2,1.3l0.7,0.8l-0.9,1.5l-0.9,2.2l-3.9,4.7l-0.6,1.6l0,0.2l-0.7,0.4l-0.3,0.7l0.3,0.3
		l0.1,0.3l0.3,0l-0.4,0.5l0.5-0.1l0.2,0.5l-0.7,0l0.4,0.4l-0.6,0.9v0.2l0.7,0.4l-0.3,0.7l-0.6,0.2l0.2,0.3l-0.3,0.3l-1.2,0.1
		l-1.7-0.4l-0.3-0.2l0.6-0.7l0.3,0v-0.2l0.2-0.1l-0.1-0.5l0.2-0.3l0.4-0.2l-0.3-0.2l0-0.3l0.8-0.5l-0.7-0.1L99,64.8l0.7,0.2
		l-0.5-0.6l0.3-0.7l0.6,0.5l-0.2-0.6l0.4,0.1l0-0.3l-0.6-0.5l-0.2-1.3l-1.4,0.5l-0.8,0l-0.7,0.5L96.3,63l-1.7,1.5l-0.3,1.2L93.4,67
		l-0.1,0.8l-1.4,2.4l-1.3,1.6l0.1,0.5L90,73.1l1.7-0.9l0.1-0.4l4.6-1.9l1.4,1.4l0.6,1.7l0.2,3.4l-1,1.1l-0.3-0.2l-0.3,0.7l-0.8,0.5
		l-0.5,0l-0.5,0.9l-0.9,0.5l-0.8-0.1l-0.7-0.9l-0.8-0.1l-1.6,1.4l-0.1,0.4l-1.7,1.7l0.1,0.2L87.2,84l-1.5,0.8l0.2,0.6l0,0.5l0.4,0
		l0.5,0.7l-0.5,1.1l-0.5,0.1l0.2,0.8l-1,0.4l-0.5,0.6l0,0.5l-3.9,2.7l-1,1.8l-1.1,0.7L78,95.8l-2,1.1l-1.4-0.1l-0.1-0.5l-0.3,0.5
		l-2-0.2l-0.2,0.4l-2.5,1.3l-0.1,0.6l-1.2,1.1l-3.6,1.1l-0.4,0.6l-4,2.7l-0.1,2.1l-0.8,1.8l-1.1,0.5l-1.3-0.8l-0.1-0.5l-0.7,0
		l0.1-0.5l-0.5,0l-0.3,0.9l-0.1-0.6l-0.8,0.5V107l-0.4,0.4l-0.1-0.4l-0.4,0.5l-0.5-0.3l-0.2-0.5l-0.3,0.6l-0.3-0.1l-0.2,0.4
		l-0.4-0.2v0.3l-1,0l-0.3,0.6l-0.4,1l-0.4-0.3l-1.1,1v1l0.1,0.1l0.1,0.7l-0.3,0.2l0.2,0.5l0.5,0.7l0.4,0.6l-0.7,0.9l-0.4,0l0,0.8
		l-0.2-0.3l-0.3,1.4l-0.4,0.5l-1,1.9l0.3-0.6l0.7,0.9l0.1,0.7l-1.7,1l0.4-1.8l-0.4,1.9l-0.4,1.1l-1.5,1.8l-1,2.1l-1.4,0.5l-0.1-0.3
		l-0.5,0.6l-1.2,0.5l-0.1-0.2l-0.6,0l-0.6,0.5l-2.2,0.8l-1,0.1l-1.2,1.1l-2.4,0.7l-2.7,0.4l-2.9,1.2l-0.9,0l-1.1,1l-1.1,0.2
		c0,0-0.9,0.9-1,1.1c-0.1,0.2-3-0.8-3-0.8l-2,0.8l-1.8-1.1l-1,0.4l-3-0.7l-0.5-0.8l-1,0.2l-1-1l-1,0.1l-1.6-1.6l-1.3-0.2L2.5,128
		l-0.1-0.9l0.3-1.1l1.9,0.1l0.7-0.3l0.4,0.2l2-0.7l2.2-0.3l1.8-0.8l2.5-0.4l0,0.3l0.4-0.3l0.6,0l0.2,0.3l0.6-0.2l0.8,0.1l0.8-0.1
		l0.8,0.1l0.4,0.4l1.6-1.3l0.1-0.5l0.4-0.6l0.5,0l0.3-0.2l0.8,0.1l1.2,0.9l3.5-1.9l0.4,0L28,121l0.8,0l0.7-0.5l0.5,0l0.5-0.4
		l0.2-1.1l0.4-0.5l0.4,0l1.5-1.3l0.7,0l0.6-1l1.7-1.6l1.7-2.5l0.2-1l1.6-1.9l1.4-2.3l0.1-0.4l1-1.4l0.7-1.4l1.5-1.2l0.9-0.3l0.3-0.4
		l1.8-0.7l0.3,0.1l0.1-0.2l2.5-1.7l1.4-0.2l0.6-0.4l2.5-3l-0.2-1.1l0.6,0.3l0.3-0.3l-0.2-0.1l0-0.1l0.3,0l0-0.3l1.5-0.9l0.5,0
		l0.2-0.4l0.3-0.2l0.1-0.5l-0.1-0.4l0.2-1l0.5-0.3l0.2-0.6l0.8-0.1l0-0.5l1.4-0.8l-0.5-0.2l0.1-0.5L60,87.2l0.2-0.5l-0.8,0.4
		l0.5-0.9l-2,1.1l0.5-1.2l0.6,0L59,85.4l1.2-0.3l0.1-1.1l1.9-1.2l0.5-1.5l1.3-0.7l0.3-0.7l1.8-0.8l1-1.1l0.2,0.1l3.2-2.1l0-0.4
		l1.6-0.7l0.4-1.3L72,73.3l0.1-1.1l1.7-3.3l5.2-4.3l0.8-0.3l1-1.2l1.2-0.2l0-0.5l1.2-1l0.6-1l0.5-0.2l-0.2-0.4l0.3-2l0.5,0l0.4-1.2
		l0.2,0L86,55l-0.2-0.7l0-0.5l1.1-1l1.5-2l-0.1-0.6l1-1l0.5,0l0.1-0.5l-0.4-0.3l0.2-1.3l0.3-0.3L90,46.3l0.4-0.5l-0.2-0.6l1.2-2.3
		l1.4-1.3l-0.1-0.3l0.7-0.7v-0.2l0.6-1l0.2,0v-0.5l0.7-1.1l0.4-1.5l0.3-0.1l-0.1-1.1l0.6-0.5l0.2-0.6l-0.4-0.6l0.6-1.4l0.8,0
		l-0.1-0.5l0.2-1.1l0.6-0.3l0-0.5l-0.6-0.4l0-0.4l1.1-0.8l0.7-1.2l1.7-0.3l0-1l-0.3-0.4l1.3-2.2l0,0.1l0.6-4.2l-0.2-1.2l0.3-0.7
		l0.5-0.2l-0.3-0.5l0.3-0.4l-0.4-0.3l0.2-0.2l-0.5-0.4l-0.3-0.6l0.5-0.1l-0.6-0.7l0.8-1.1l-0.5-1l0.5-0.5l-0.1-0.5l2.5-0.6l0.4-1.8
		l1.1-0.7l2.5-3l1.1-0.1L110,3.8l2-2.1l1.3,0.8l-0.1,1.1l2.2,1.4L116,6l-0.7,0.5l1,0.6l0.2,0.8l-0.7,0.4l-0.2,1l-1,1l-0.4,1.3
		l0.8,0.5l-0.8,0.5l0,1l1.2,0.5l-1.2,0.4l-0.5,2.2l0.2,0.2l-0.4,1.4l-0.6,0.8l0.5,0.9l-0.1,1.4l-1.3,1.4l0.1,0.7l0.6,0.8l-0.5,0.3
		L112.9,26.9L112.9,26.9L112.9,26.9z"/>
	<path class="st1" d="M167.6,49.4V47c7-0.2,10.3-4.7,10.3-9.3c0-2.5-0.9-4.6-2.7-6.4c-1.8-1.8-4.3-2.8-7.6-2.9v-2h-4.4v2
		c-3.3,0.1-5.8,1.1-7.6,2.9c-1.8,1.8-2.7,4-2.7,6.4c0,4.6,3.4,9.1,10.3,9.3v2.3H167.6L167.6,49.4z M163.2,43.1
		c-3.7-0.1-5.8-2.2-5.8-5.4c0-3.2,2.1-5.3,5.8-5.4V43.1L163.2,43.1z M167.6,32.3c3.7,0,5.8,2.2,5.8,5.4c0,3.2-2.1,5.3-5.8,5.4V32.3
		L167.6,32.3z"/>
	<path class="st1" d="M244,127.8c0.4,0.2,1,0.3,1.8,0.3c2.5,0,4.3-0.9,5.3-2.8c1-1.9,1.6-5.4,1.7-10.3l0.1-4.3h6.5v17.4h4.4v-21.3
		h-15.1l-0.1,6.3c-0.1,4.3-0.3,7.3-0.7,8.8c-0.4,1.6-1.2,2.3-2.3,2.3c-0.6,0-1.1-0.1-1.6-0.2V127.8L244,127.8z"/>
	<polygon class="st1" points="219.5,48.6 219.5,39.2 229.2,39.2 229.2,48.6 233.5,48.6 233.5,27.3 229.2,27.3 229.2,35.2 
		219.5,35.2 219.5,27.3 215.2,27.3 215.2,48.6 219.5,48.6 	"/>
	<path class="st1" d="M190.6,42.9c-1.3-1.3-1.9-3-1.9-5c0-2,0.6-3.7,1.9-5c1.3-1.3,2.8-2,4.7-2c1.9,0,3.4,0.7,4.7,2
		c1.3,1.3,1.9,3,1.9,5c0,2-0.6,3.7-1.9,5c-1.3,1.3-2.8,2-4.7,2C193.4,44.9,191.8,44.2,190.6,42.9L190.6,42.9z M184.2,37.9
		c0,3.1,1,5.7,3.1,7.9c2.1,2.2,4.8,3.2,7.9,3.2c3.2,0,5.8-1.1,7.9-3.2c2.1-2.2,3.2-4.8,3.2-7.9c0-3.1-1.1-5.7-3.2-7.9
		c-2.1-2.2-4.7-3.2-7.9-3.2c-3.2,0-5.8,1.1-7.9,3.2C185.3,32.2,184.2,34.8,184.2,37.9L184.2,37.9z"/>
	<path class="st1" d="M246,52.9v-4.4h14.6v4.4h4.1v-8.3h-2.9V27.2h-15v3.4c0,3.5-0.2,6.4-0.7,8.5c-0.5,2.2-1.2,4-2.1,5.5h-2.1v8.3
		H246L246,52.9z M248.9,44.7c1.9-3.8,2.3-8,2.3-13.5h6.3v13.5H248.9L248.9,44.7z"/>
	<path class="st1" d="M248.9,82.6c-1.3-1.3-1.9-3-1.9-5c0-2,0.6-3.7,1.9-5c1.3-1.3,2.8-2,4.7-2c1.9,0,3.4,0.7,4.7,2
		c1.3,1.3,1.9,3,1.9,5c0,2-0.6,3.7-1.9,5c-1.3,1.3-2.8,2-4.7,2C251.7,84.6,250.1,83.9,248.9,82.6L248.9,82.6z M242.6,77.6
		c0,3.1,1,5.7,3.1,7.9c2.1,2.2,4.8,3.2,7.9,3.2s5.8-1.1,7.9-3.2c2.1-2.2,3.2-4.8,3.2-7.9c0-3.1-1.1-5.7-3.2-7.9
		c-2.1-2.2-4.7-3.2-7.9-3.2s-5.8,1.1-7.9,3.2C243.6,71.9,242.6,74.5,242.6,77.6L242.6,77.6z"/>
	<path class="st1" d="M165.1,88.7c2.8,0,5-0.6,6.6-1.9c1.6-1.3,2.4-2.9,2.4-4.8c0-2.6-1.6-4.4-3.7-5.1c1.5-0.6,2.9-2.1,2.9-4.3
		c0-1.8-0.7-3.3-2.2-4.4c-1.5-1.1-3.4-1.7-5.9-1.7c-2.7,0-5.1,0.5-7,1.6v4.1c2.1-1.1,4.4-1.6,6.8-1.6c2.5,0,4,0.8,4,2.3
		c0,1.6-1.2,2.3-3.4,2.3h-3.2v3.7h2.7c2.8,0,4.5,0.9,4.5,2.7c0,2-1.9,3.1-5.2,3.1c-2.4,0-5.2-0.9-7.1-2.2v4.3
		C159.5,88,162,88.7,165.1,88.7L165.1,88.7z"/>
	<path class="st1" d="M132,82.6c-1.3-1.3-1.9-3-1.9-5c0-2,0.6-3.7,1.9-5c1.3-1.3,2.8-2,4.7-2c1.9,0,3.4,0.7,4.7,2
		c1.3,1.3,1.9,3,1.9,5c0,2-0.6,3.7-1.9,5c-1.3,1.3-2.8,2-4.7,2C134.8,84.6,133.3,83.9,132,82.6L132,82.6z M125.7,77.6
		c0,3.1,1,5.7,3.1,7.9c2.1,2.2,4.8,3.2,7.9,3.2c3.2,0,5.8-1.1,7.9-3.2c2.1-2.2,3.2-4.8,3.2-7.9c0-3.1-1.1-5.7-3.2-7.9
		c-2.1-2.2-4.7-3.2-7.9-3.2c-3.2,0-5.8,1.1-7.9,3.2C126.7,71.9,125.7,74.5,125.7,77.6L125.7,77.6z"/>
	<polygon class="st1" points="203.1,88.3 203.1,84.3 191.5,84.3 191.5,78.8 200.5,78.8 200.5,75 191.5,75 191.5,70.9 202.7,70.9 
		202.7,66.9 187.1,66.9 187.1,88.3 203.1,88.3 	"/>
	<path class="st1" d="M220.4,88.3v-8.4h4.9c2.3,0,4.1-0.6,5.4-1.8c1.3-1.2,2-2.7,2-4.7c0-1.9-0.7-3.4-2-4.6
		c-1.3-1.2-3.1-1.8-5.4-1.8H216v21.3H220.4L220.4,88.3z M220.4,70.8h4.6c2.1,0,3.4,0.9,3.4,2.7c0,1.7-1.3,2.7-3.4,2.7h-4.6V70.8
		L220.4,70.8z"/>
	<path class="st1" d="M217.3,128l2.1-4.9h9l2.1,4.9h4.7l-9.1-21.5h-4.2l-9.1,21.5H217.3L217.3,128z M223.9,112l3.1,7.4h-6.3
		L223.9,112L223.9,112z"/>
	<polygon class="st1" points="189.9,127.9 189.9,118.1 199.1,127.9 204.7,127.9 194,116.4 203.1,106.6 197.7,106.6 189.9,115 
		189.9,106.6 185.5,106.6 185.5,127.9 189.9,127.9 	"/>
	<path class="st1" d="M108,127.9c2.5,0,4.5-0.6,5.9-1.9c1.4-1.3,2.2-3,2.2-5.1s-0.7-3.8-2.2-5.1c-1.4-1.3-3.4-2-5.9-2h-4.8v-3.4
		h11.1v-3.9H98.8v21.3H108L108,127.9z M103.2,117.6h4.5c2.5,0,4,1.2,4,3.3c0,2.1-1.5,3.2-4,3.2h-4.5V117.6L103.2,117.6z"/>
	<path class="st1" d="M160.4,127.9l10.5-14v14h4.4v-21.3h-3.8l-10.3,13.9v-13.9h-4.4v21.3H160.4L160.4,127.9z M160.3,100.2
		c0,3.2,2.4,5.2,5.6,5.2c3.2,0,5.6-2,5.6-5.2h-3.2c0,1.3-0.9,2.2-2.4,2.2c-1.4,0-2.3-0.9-2.3-2.2H160.3L160.3,100.2z"/>
	<path class="st1" d="M129.5,128l2.1-4.9h9l2.1,4.9h4.7l-9.1-21.5H134l-9.1,21.5H129.5L129.5,128z M136.1,112l3.1,7.4h-6.3
		L136.1,112L136.1,112z"/>
</g>
</svg>
