<?xml version="1.0" ?><svg enable-background="new 0 0 40 40" id="Слой_1" version="1.1" viewBox="0 0 40 40" xml:space="preserve" xmlns="http://www.w3.org/2000/svg" xmlns:xlink="http://www.w3.org/1999/xlink"><g><path d="M15.3,30.9C6.8,30.9-0.1,24-0.1,15.5S6.8,0,15.3,0S30.8,7,30.8,15.5c0,1.2-0.1,2.4-0.4,3.6c-0.1,0.5-0.7,0.9-1.2,0.7   c-0.5-0.1-0.9-0.7-0.7-1.2c0.2-1,0.4-2,0.4-3.1c0-7.4-6-13.5-13.5-13.5S1.9,8.1,1.9,15.5s6,13.5,13.5,13.5c1.1,0,2.1-0.1,3.2-0.4   c0.5-0.1,1.1,0.2,1.2,0.7c0.1,0.5-0.2,1.1-0.7,1.2C17.8,30.8,16.6,30.9,15.3,30.9z"/></g><g><path d="M36.4,40c-0.9,0-1.8-0.4-2.5-1l-11-11c-0.4-0.4-0.4-1,0-1.4s1-0.4,1.4,0l11,11c0.6,0.6,1.6,0.6,2.1,0   c0.6-0.6,0.6-1.6,0-2.1l-11-11c-0.4-0.4-0.4-1,0-1.4s1-0.4,1.4,0l11,11c1.4,1.4,1.4,3.6,0,5C38.2,39.6,37.3,40,36.4,40z"/></g><g><path d="M15.3,27C9,27,3.8,21.8,3.8,15.5S9,4,15.3,4s11.5,5.2,11.5,11.5S21.7,27,15.3,27z M15.3,6c-5.2,0-9.5,4.3-9.5,9.5   s4.3,9.5,9.5,9.5s9.5-4.3,9.5-9.5S20.6,6,15.3,6z"/></g></svg>