<?xml version="1.0" standalone="no"?>
<!DOCTYPE svg PUBLIC "-//W3C//DTD SVG 20010904//EN"
 "http://www.w3.org/TR/2001/REC-SVG-20010904/DTD/svg10.dtd">
<svg version="1.0" xmlns="http://www.w3.org/2000/svg"
 width="512.000000pt" height="512.000000pt" viewBox="0 0 512.000000 512.000000"
 preserveAspectRatio="xMidYMid meet">

<g transform="translate(0.000000,512.000000) scale(0.100000,-0.100000)"
fill="#000000" stroke="none">
<path d="M29 5091 l-29 -29 0 -2265 c0 -2222 0 -2265 20 -2341 29 -113 73
-190 160 -276 86 -87 163 -131 276 -160 76 -20 118 -20 2104 -20 1986 0 2028
0 2104 20 113 29 190 73 276 160 87 86 131 163 160 276 20 75 20 117 20 1686
l0 1608 -85 0 -85 0 0 -1589 c0 -1022 -4 -1607 -10 -1642 -41 -221 -263 -379
-480 -341 -164 29 -287 133 -340 286 -20 59 -20 78 -20 2313 0 2420 2 2305
-48 2332 -15 8 -603 11 -2007 11 l-1987 0 -29 -29z m3901 -2386 c5 -2156 6
-2242 24 -2290 29 -78 61 -137 106 -193 l41 -52 -1798 2 -1798 3 -55 22 c-111
46 -207 142 -253 253 l-22 55 -3 2223 -2 2222 1877 -2 1878 -3 5 -2240z"/>
<path d="M340 4695 l0 -85 1705 0 1705 0 0 85 0 85 -1705 0 -1705 0 0 -85z"/>
<path d="M404 4433 c-12 -2 -30 -13 -40 -25 -18 -19 -19 -51 -19 -654 l0 -633
23 -23 23 -23 1627 -3 c895 -1 1642 0 1660 3 18 3 42 15 53 26 18 18 19 38 19
652 -1 682 1 656 -54 677 -26 10 -3242 13 -3292 3z m3176 -678 l0 -515 -1535
0 -1535 0 0 515 0 515 1535 0 1535 0 0 -515z"/>
<path d="M340 2815 l0 -85 1705 0 1705 0 0 85 0 85 -1705 0 -1705 0 0 -85z"/>
<path d="M373 2536 l-28 -24 -3 -359 c-2 -197 0 -368 3 -380 3 -12 15 -32 27
-43 21 -19 33 -20 483 -20 l462 0 24 26 24 26 3 341 c2 188 0 357 -3 376 -4
18 -17 44 -30 57 l-24 24 -455 0 -455 0 -28 -24z m817 -401 l0 -255 -340 0
-340 0 0 255 0 255 340 0 340 0 0 -255z"/>
<path d="M1585 2548 c-45 -24 -45 -23 -45 -415 l0 -374 25 -24 24 -25 455 0
c250 0 462 3 471 6 42 16 45 45 45 424 l0 362 -29 29 -29 29 -449 0 c-305 -1
-454 -4 -468 -12z m805 -413 l0 -255 -340 0 -340 0 0 255 0 255 340 0 340 0 0
-255z"/>
<path d="M2759 2531 l-29 -29 0 -362 c0 -369 2 -389 39 -417 12 -9 129 -12
472 -13 447 0 457 0 483 21 l26 20 0 374 c0 205 -3 381 -6 390 -17 43 -39 45
-509 45 l-447 0 -29 -29z m821 -396 l0 -255 -340 0 -340 0 0 255 0 255 340 0
340 0 0 -255z"/>
<path d="M340 1455 l0 -85 515 0 516 0 -3 83 -3 82 -512 3 -513 2 0 -85z"/>
<path d="M1540 1455 l0 -85 510 0 510 0 0 85 0 85 -510 0 -510 0 0 -85z"/>
<path d="M2730 1455 l0 -85 510 0 510 0 0 85 0 85 -510 0 -510 0 0 -85z"/>
<path d="M340 1105 l0 -85 513 2 512 3 3 83 3 82 -516 0 -515 0 0 -85z"/>
<path d="M1540 1105 l0 -85 510 0 510 0 0 85 0 85 -510 0 -510 0 0 -85z"/>
<path d="M2730 1105 l0 -85 510 0 510 0 0 85 0 85 -510 0 -510 0 0 -85z"/>
<path d="M340 765 l0 -85 513 2 512 3 3 83 3 82 -516 0 -515 0 0 -85z"/>
<path d="M1540 765 l0 -85 510 0 510 0 0 85 0 85 -510 0 -510 0 0 -85z"/>
<path d="M2730 765 l0 -85 510 0 510 0 0 85 0 85 -510 0 -510 0 0 -85z"/>
<path d="M510 425 l0 -85 1620 0 1620 0 0 85 0 85 -1620 0 -1620 0 0 -85z"/>
<path d="M4272 2478 c3 -1835 4 -1965 20 -1994 85 -155 287 -188 409 -66 86
86 79 -74 79 1919 l0 1763 -85 0 -85 0 -2 -1770 -3 -1769 -22 -23 c-31 -30
-84 -30 -118 2 l-25 23 0 1939 0 1938 -85 0 -85 0 2 -1962z"/>
</g>
</svg>
